<svg xmlns="http://www.w3.org/2000/svg" width="361" height="123" fill="none"><g opacity=".8"><g opacity=".81" stroke-width="2"><path d="M0 22h361" stroke="url(#a)"></path><path d="m0 61 361 1" stroke="url(#b)"></path><path d="M0 101h361" stroke="url(#c)"></path><path d="M193.586 0v123" stroke="url(#d)"></path><path d="M25 0v123" stroke="url(#e)"></path><path d="M235.757 0v123" stroke="url(#f)"></path><path d="M67.172 0v123" stroke="url(#g)"></path><path d="M277.929 0v123" stroke="url(#h)"></path><path d="M109.343 0v123" stroke="url(#i)"></path><path d="M320.686 0v123" stroke="url(#j)"></path><path d="M152.101 0v123" stroke="url(#k)"></path></g></g><path d="M125.864 107.777c12.635-5.504 18.416-20.208 12.913-32.843-5.504-12.635-20.208-18.416-32.843-12.913-12.635 5.504-18.416 20.208-12.913 32.843 5.504 12.635 20.208 18.416 32.843 12.913z" fill="#B6C7F9"></path><path d="M139.147 69.487a27.88 27.88 0 0 0-7.507-7.608 27.894 27.894 0 0 0-9.813-4.238 27.703 27.703 0 0 0-11.072-.152 27.701 27.701 0 0 0-10.263 4.155 27.947 27.947 0 0 0-11.848 17.32 27.7 27.7 0 0 0-.152 11.07 27.7 27.7 0 0 0 4.155 10.264 27.971 27.971 0 0 0 3.4 4.182 28.076 28.076 0 0 0 8.791 6.011 27.847 27.847 0 0 0 5.13 1.653c3.647.796 7.371.847 11.071.153a27.69 27.69 0 0 0 10.263-4.156 27.922 27.922 0 0 0 7.61-7.507 27.859 27.859 0 0 0 4.238-9.812c.796-3.648.847-7.372.153-11.071a27.694 27.694 0 0 0-4.156-10.264zm-18.349 41.528c-14.403 2.702-28.32-6.818-31.023-21.221-2.702-14.403 6.816-28.32 21.221-31.023 14.405-2.703 28.321 6.816 31.023 21.22 2.703 14.405-6.817 28.321-21.221 31.024z" fill="#B6C7F9"></path><path d="m112.342 83.914 6.475-1.215.57 3.042-5.837 1.096c.373.553.617 1.131.73 1.735.224 1.193.177 2.508-.143 3.943-.32 1.436-1 2.968-2.042 4.597 1.025-.505 1.983-.84 2.874-1.008 1.137-.213 2.451-.282 3.941-.207 2.462.12 4.112.102 4.947-.055 1.014-.19 2.258-.821 3.732-1.892l1.828 3.167c-1.161.771-2.072 1.304-2.732 1.598a9.1 9.1 0 0 1-2.02.634 9.658 9.658 0 0 1-1.778.163c-.382.001-1.317-.083-2.803-.251-1.486-.168-2.441-.254-2.868-.26-.665.011-1.318.078-1.963.2-.986.184-2.006.553-3.058 1.105a12.473 12.473 0 0 0-2.79 1.971l-2.086-3.29c1.18-.973 2.101-2.22 2.767-3.743.665-1.523.815-3.256.45-5.203a9.907 9.907 0 0 0-.828-2.482l-4.028.756-.571-3.042 3.165-.594c-.74-1.45-1.238-2.517-1.494-3.199a12.285 12.285 0 0 1-.573-2.03c-.535-2.852.102-5.276 1.912-7.276 1.46-1.593 3.396-2.616 5.808-3.069 2.412-.452 4.653-.166 6.52.894 1.865 1.062 3.215 2.79 4.047 5.188l-3.575 1.245c-.514-1.605-1.37-2.785-2.569-3.54-1.198-.754-2.51-.997-3.935-.73-1.521.286-2.694 1.013-3.517 2.183-.823 1.168-1.105 2.444-.845 3.83.285 1.52 1.049 3.434 2.29 5.74h-.001z" fill="#F6F6F6"></path><path d="M193.507 58.844c11.819-5.844 16.663-20.162 10.82-31.981-5.844-11.82-20.162-16.664-31.982-10.82-11.819 5.843-16.663 20.162-10.82 31.98 5.844 11.82 20.162 16.664 31.982 10.82z" fill="#D2C9FE"></path><path d="M204.728 22.072a26.68 26.68 0 0 0-7.39-7.068 26.673 26.673 0 0 0-9.501-3.78 26.495 26.495 0 0 0-10.591.16 26.5 26.5 0 0 0-9.7 4.259 26.714 26.714 0 0 0-7.067 7.39 26.87 26.87 0 0 0-2.343 4.55 26.595 26.595 0 0 0-1.438 4.95c-.66 3.511-.606 7.074.161 10.593a26.508 26.508 0 0 0 4.258 9.699 26.746 26.746 0 0 0 16.891 10.848c3.511.66 7.073.606 10.592-.16a26.498 26.498 0 0 0 9.699-4.26 26.675 26.675 0 0 0 7.068-7.39 26.944 26.944 0 0 0 2.343-4.549 26.748 26.748 0 0 0 1.438-4.951c.66-3.51.605-7.073-.161-10.592a26.51 26.51 0 0 0-4.259-9.7zm-16.394 40.22c-13.699 2.983-27.272-5.735-30.256-19.434-2.984-13.698 5.733-27.272 19.433-30.256 13.7-2.984 27.272 5.733 30.256 19.433 2.984 13.7-5.734 27.273-19.433 30.257z" fill="#D2C9FE"></path><path d="m185.505 53.294-.678-3.113c-1.6.143-2.94.07-4.024-.22-1.083-.289-2.101-.916-3.054-1.88-.954-.964-1.663-2.24-2.13-3.829l3.002-1.27c.606 1.62 1.3 2.755 2.082 3.405 1.117.916 2.3 1.304 3.55 1.165l-2.159-9.91c-1.333.036-2.749-.173-4.249-.633a5.874 5.874 0 0 1-2.792-1.802c-.75-.863-1.261-1.917-1.532-3.163-.482-2.214-.089-4.177 1.18-5.89.848-1.15 2.281-2.056 4.3-2.712l-.324-1.488 1.834-.4.324 1.488c1.848-.222 3.399-.004 4.653.653 1.606.834 2.764 2.207 3.469 4.118l-3.112 1.185c-.451-1.182-1.038-2.036-1.762-2.56-.725-.525-1.617-.781-2.677-.767l1.955 8.976c1.654.051 2.757.13 3.313.238 1.062.216 1.964.563 2.709 1.04a6.407 6.407 0 0 1 1.884 1.873c.513.77.875 1.645 1.089 2.625.469 2.156.175 4.104-.883 5.844-1.059 1.74-2.666 2.9-4.822 3.477l.686 3.148-1.834.4.002.002zm-5.937-27.255c-1.171.448-2.019 1.14-2.545 2.075-.526.936-.673 1.94-.439 3.012.233 1.072.72 1.884 1.47 2.47.749.585 1.879.936 3.39 1.055l-1.876-8.613zm6.52 21.115c1.179-.414 2.064-1.157 2.658-2.227.594-1.072.747-2.27.458-3.597-.246-1.13-.724-1.976-1.432-2.54-.709-.565-1.959-.935-3.748-1.114l2.064 9.478z" fill="#F6F6F6"></path><path d="M253.482 107.49c15.096.373 27.635-11.562 28.008-26.658.373-15.095-11.562-27.634-26.658-28.007-15.095-.373-27.634 11.562-28.007 26.657-.373 15.096 11.562 27.635 26.657 28.008z" fill="#FCCD15"></path><path d="M284.406 75.791a30.697 30.697 0 0 0-1.408-5.735 30.716 30.716 0 0 0-10.193-14.113 30.349 30.349 0 0 0-10.894-5.34 30.35 30.35 0 0 0-12.112-.694 30.597 30.597 0 0 0-11.053 3.87 30.512 30.512 0 0 0-8.795 7.732 30.334 30.334 0 0 0-5.339 10.893 30.335 30.335 0 0 0-.694 12.112 30.616 30.616 0 0 0 1.407 5.734 30.795 30.795 0 0 0 5.888 10.073 30.486 30.486 0 0 0 4.306 4.041 30.337 30.337 0 0 0 10.893 5.339 30.337 30.337 0 0 0 12.112.694 30.632 30.632 0 0 0 5.735-1.407 30.74 30.74 0 0 0 10.073-5.888 30.563 30.563 0 0 0 4.041-4.306 30.352 30.352 0 0 0 5.339-10.893 30.354 30.354 0 0 0 .694-12.112zm-37.631 32.529c-15.531-4.073-24.854-20.024-20.781-35.555 4.073-15.531 20.022-24.854 35.555-20.78 15.533 4.072 24.854 20.021 20.781 35.554-4.074 15.532-20.024 24.854-35.555 20.781z" fill="#FCCD15"></path><path d="m247.895 96.027 1.906-7.266-9.278-2.433.814-3.107 9.279 2.433.838-3.197-9.278-2.434.868-3.308 7.624 2-4.909-18.276 4.471 1.172 3.459 13.236c.385 1.504.651 2.799.796 3.889.55-.701 1.48-1.754 2.79-3.164l9.098-9.727 4.785 1.255-13.222 13.52 7.624 2-.868 3.308-9.211-2.415-.838 3.197 9.211 2.416-.815 3.106-9.211-2.415-1.906 7.266-4.023-1.055h-.004z" fill="#F6F6F6"></path><defs><linearGradient id="f" x1="235.254" y1=".856" x2="235.254" y2="123" gradientUnits="userSpaceOnUse"><stop stop-color="#D1DDFF"></stop><stop offset="1" stop-color="#E1E8FF"></stop></linearGradient><linearGradient id="a" x1="2.513" y1="22" x2="361" y2="22" gradientUnits="userSpaceOnUse"><stop stop-color="#D1DDFF"></stop><stop offset="1" stop-color="#E1E8FF"></stop></linearGradient><linearGradient id="c" x1="2.513" y1="101" x2="361" y2="101" gradientUnits="userSpaceOnUse"><stop stop-color="#D1DDFF"></stop><stop offset="1" stop-color="#E1E8FF"></stop></linearGradient><linearGradient id="d" x1="193.082" y1=".856" x2="193.082" y2="123" gradientUnits="userSpaceOnUse"><stop stop-color="#D1DDFF"></stop><stop offset="1" stop-color="#E1E8FF"></stop></linearGradient><linearGradient id="e" x1="24.497" y1=".856" x2="24.497" y2="123" gradientUnits="userSpaceOnUse"><stop stop-color="#D1DDFF"></stop><stop offset="1" stop-color="#E1E8FF"></stop></linearGradient><linearGradient id="b" x1="2.513" y1="61.504" x2="361" y2="61.504" gradientUnits="userSpaceOnUse"><stop stop-color="#D1DDFF"></stop><stop offset="1" stop-color="#E1E8FF"></stop></linearGradient><linearGradient id="g" x1="66.668" y1=".856" x2="66.668" y2="123" gradientUnits="userSpaceOnUse"><stop stop-color="#D1DDFF"></stop><stop offset="1" stop-color="#E1E8FF"></stop></linearGradient><linearGradient id="h" x1="277.425" y1=".856" x2="277.425" y2="123" gradientUnits="userSpaceOnUse"><stop stop-color="#D1DDFF"></stop><stop offset="1" stop-color="#E1E8FF"></stop></linearGradient><linearGradient id="i" x1="108.84" y1=".856" x2="108.84" y2="123" gradientUnits="userSpaceOnUse"><stop stop-color="#D1DDFF"></stop><stop offset="1" stop-color="#E1E8FF"></stop></linearGradient><linearGradient id="j" x1="320.183" y1=".856" x2="320.183" y2="123" gradientUnits="userSpaceOnUse"><stop stop-color="#D1DDFF"></stop><stop offset="1" stop-color="#E1E8FF"></stop></linearGradient><linearGradient id="k" x1="151.597" y1=".856" x2="151.597" y2="123" gradientUnits="userSpaceOnUse"><stop stop-color="#D1DDFF"></stop><stop offset="1" stop-color="#E1E8FF"></stop></linearGradient></defs></svg>